<?xml version="1.0" encoding="UTF-8" standalone="no"?>
<!DOCTYPE svg PUBLIC "-//W3C//DTD SVG 1.0//EN" "http://www.w3.org/TR/2001/PR-SVG-20010719/DTD/svg10.dtd">
<svg width="60cm" height="31cm" viewBox="205 180 1183 605" xmlns="http://www.w3.org/2000/svg" xmlns:xlink="http://www.w3.org/1999/xlink">
  <g>
    <rect style="fill: #ffffff" x="719" y="181" width="425.8" height="44"/>
    <rect style="fill: none; fill-opacity:0; stroke-width: 2; stroke: #000000" x="719" y="181" width="425.8" height="44"/>
    <text font-size="12.8" style="fill: #000000;text-anchor:middle;font-family:monospace;font-style:normal;font-weight:normal" x="931.9" y="196.2">&lt;&lt;Interface&gt;&gt;</text>
    <text font-size="16" style="fill: #000000;text-anchor:middle;font-family:sans-serif;font-style:normal;font-weight:700" x="931.9" y="217">TableModel</text>
    <rect style="fill: #ffffff" x="719" y="225" width="425.8" height="8"/>
    <rect style="fill: none; fill-opacity:0; stroke-width: 2; stroke: #000000" x="719" y="225" width="425.8" height="8"/>
    <rect style="fill: #ffffff" x="719" y="233" width="425.8" height="116"/>
    <rect style="fill: none; fill-opacity:0; stroke-width: 2; stroke: #000000" x="719" y="233" width="425.8" height="116"/>
    <text font-size="12.8" style="fill: #000000;text-anchor:start;font-family:monospace;font-style:normal;font-weight:normal" x="722" y="246.2">+getColumnCount()</text>
    <text font-size="12.8" style="fill: #000000;text-anchor:start;font-family:monospace;font-style:normal;font-weight:normal" x="722" y="262.2">+getRowCount(): int</text>
    <text font-size="12.8" style="fill: #000000;text-anchor:start;font-family:monospace;font-style:normal;font-weight:normal" x="722" y="278.2">+getValueAt(rowIndex:int,columnIndex:int): Object</text>
    <text font-size="12.8" style="fill: #000000;text-anchor:start;font-family:monospace;font-style:normal;font-weight:normal" x="722" y="294.2">+addTableModelListener(l:TableModelListener): void</text>
    <text font-size="12.8" style="fill: #000000;text-anchor:start;font-family:monospace;font-style:normal;font-weight:normal" x="722" y="310.2">+getColumnClass(columnIndex:int): Class</text>
    <text font-size="12.8" style="fill: #000000;text-anchor:start;font-family:monospace;font-style:normal;font-weight:normal" x="722" y="326.2">+getValueAt(rowIndex:int,columnIndex:int): Object</text>
    <text font-size="12.8" style="fill: #000000;text-anchor:start;font-family:monospace;font-style:normal;font-weight:normal" x="722" y="342.2">+isCellEditable(rowIndex:int,columnIndez:int): boolean</text>
  </g>
  <g>
    <rect style="fill: #ffffff" x="680" y="535" width="310.3" height="44"/>
    <rect style="fill: none; fill-opacity:0; stroke-width: 2; stroke: #000000" x="680" y="535" width="310.3" height="44"/>
    <text font-size="12.8" style="fill: #000000;text-anchor:middle;font-family:monospace;font-style:normal;font-weight:normal" x="835.15" y="550.2">&lt;&lt;Abstract&gt;&gt;</text>
    <text font-size="16" style="fill: #000000;text-anchor:middle;font-family:sans-serif;font-style:normal;font-weight:700" x="835.15" y="571">AbstractTableModel</text>
    <rect style="fill: #ffffff" x="680" y="579" width="310.3" height="8"/>
    <rect style="fill: none; fill-opacity:0; stroke-width: 2; stroke: #000000" x="680" y="579" width="310.3" height="8"/>
    <rect style="fill: #ffffff" x="680" y="587" width="310.3" height="68"/>
    <rect style="fill: none; fill-opacity:0; stroke-width: 2; stroke: #000000" x="680" y="587" width="310.3" height="68"/>
    <text font-size="12.8" style="fill: #000000;text-anchor:start;font-family:monospace;font-style:normal;font-weight:normal" x="683" y="600.2">+findColumn(columnName:String): int</text>
    <text font-size="12.8" style="fill: #000000;text-anchor:start;font-family:monospace;font-style:normal;font-weight:normal" x="683" y="616.2">+getColumnName(column:int): String</text>
    <text font-size="12.8" style="fill: #000000;text-anchor:start;font-family:monospace;font-style:normal;font-weight:normal" x="683" y="632.2">+getColumnClass(columnIndex:int): Class</text>
    <text font-size="12.8" style="fill: #000000;text-anchor:start;font-family:monospace;font-style:normal;font-weight:normal" x="683" y="648.2">+...()</text>
  </g>
  <g>
    <rect style="fill: #ffffff" x="1276" y="565" width="110.1" height="44"/>
    <rect style="fill: none; fill-opacity:0; stroke-width: 2; stroke: #e6e6fa" x="1276" y="565" width="110.1" height="44"/>
    <text font-size="12.8" style="fill: #000000;text-anchor:middle;font-family:monospace;font-style:normal;font-weight:normal" x="1331.05" y="580.2">&lt;&lt;Interface&gt;&gt;</text>
    <text font-size="16" style="fill: #000000;text-anchor:middle;font-family:sans-serif;font-style:normal;font-weight:700" x="1331.05" y="601">Serializable</text>
    <rect style="fill: #ffffff" x="1276" y="609" width="110.1" height="8"/>
    <rect style="fill: none; fill-opacity:0; stroke-width: 2; stroke: #e6e6fa" x="1276" y="609" width="110.1" height="8"/>
    <rect style="fill: #ffffff" x="1276" y="617" width="110.1" height="8"/>
    <rect style="fill: none; fill-opacity:0; stroke-width: 2; stroke: #e6e6fa" x="1276" y="617" width="110.1" height="8"/>
  </g>
  <g>
    <polyline style="fill: none; fill-opacity:0; stroke-width: 2; stroke-dasharray: 8; stroke: #000000" points="1257.76,587 1125.65,587 1125.65,595 991.31,595 "/>
    <polygon style="fill: #ffffff" points="1257.76,595 1273.76,587 1257.76,579 "/>
    <polygon style="fill: none; fill-opacity:0; stroke-width: 2; stroke: #000000" points="1257.76,595 1273.76,587 1257.76,579 "/>
  </g>
  <g>
    <polyline style="fill: none; fill-opacity:0; stroke-width: 2; stroke-dasharray: 8; stroke: #000000" points="931.9,367.236 931.9,450 835.15,450 835.15,535 "/>
    <polygon style="fill: #ffffff" points="939.9,367.236 931.9,351.236 923.9,367.236 "/>
    <polygon style="fill: none; fill-opacity:0; stroke-width: 2; stroke: #000000" points="939.9,367.236 931.9,351.236 923.9,367.236 "/>
  </g>
  <g>
    <rect style="fill: #ffffff" x="789" y="728" width="156.3" height="28"/>
    <rect style="fill: none; fill-opacity:0; stroke-width: 2; stroke: #e6e6fa" x="789" y="728" width="156.3" height="28"/>
    <text font-size="16" style="fill: #000000;text-anchor:middle;font-family:sans-serif;font-style:normal;font-weight:700" x="867.15" y="748">Object</text>
    <rect style="fill: #ffffff" x="789" y="756" width="156.3" height="8"/>
    <rect style="fill: none; fill-opacity:0; stroke-width: 2; stroke: #e6e6fa" x="789" y="756" width="156.3" height="8"/>
    <rect style="fill: #ffffff" x="789" y="764" width="156.3" height="20"/>
    <rect style="fill: none; fill-opacity:0; stroke-width: 2; stroke: #e6e6fa" x="789" y="764" width="156.3" height="20"/>
    <text font-size="12.8" style="fill: #000000;text-anchor:start;font-family:monospace;font-style:normal;font-weight:normal" x="792" y="777.2">+toString(): String</text>
  </g>
  <g>
    <polyline style="fill: none; fill-opacity:0; stroke-width: 2; stroke: #000000" points="867.15,709.764 867.15,683.5 835.15,683.5 835.15,655 "/>
    <polygon style="fill: #ffffff" points="859.15,709.764 867.15,725.764 875.15,709.764 "/>
    <polygon style="fill: none; fill-opacity:0; stroke-width: 2; stroke: #000000" points="859.15,709.764 867.15,725.764 875.15,709.764 "/>
  </g>
  <g>
    <rect style="fill: #ffffff" x="206" y="411" width="387.3" height="28"/>
    <rect style="fill: none; fill-opacity:0; stroke-width: 2; stroke: #000000" x="206" y="411" width="387.3" height="28"/>
    <text font-size="16" style="fill: #000000;text-anchor:middle;font-family:sans-serif;font-style:normal;font-weight:700" x="399.65" y="431">DefaultTableModel</text>
    <rect style="fill: #ffffff" x="206" y="439" width="387.3" height="36"/>
    <rect style="fill: none; fill-opacity:0; stroke-width: 2; stroke: #000000" x="206" y="439" width="387.3" height="36"/>
    <text font-size="12.8" style="fill: #000000;text-anchor:start;font-family:monospace;font-style:normal;font-weight:normal" x="209" y="452.2">#columnIdentifyers: Vector</text>
    <text font-size="12.8" style="fill: #000000;text-anchor:start;font-family:monospace;font-style:normal;font-weight:normal" x="209" y="468.2">#dataVector: Vector of Vectors of Objects values</text>
    <rect style="fill: #ffffff" x="206" y="475" width="387.3" height="52"/>
    <rect style="fill: none; fill-opacity:0; stroke-width: 2; stroke: #000000" x="206" y="475" width="387.3" height="52"/>
    <text font-size="12.8" style="fill: #000000;text-anchor:start;font-family:monospace;font-style:normal;font-weight:normal" x="209" y="488.2">+getColumnCount(): int</text>
    <text font-size="12.8" style="fill: #000000;text-anchor:start;font-family:monospace;font-style:normal;font-weight:normal" x="209" y="504.2">+getRowCount(): int</text>
    <text font-size="12.8" style="fill: #000000;text-anchor:start;font-family:monospace;font-style:normal;font-weight:normal" x="209" y="520.2">+getValueAt(rowIndex:int,columnIndex:int): Object</text>
  </g>
  <g>
    <polyline style="fill: none; fill-opacity:0; stroke-width: 2; stroke: #000000" points="661.764,597 628.65,597 628.65,501 593.3,501 "/>
    <polygon style="fill: #ffffff" points="661.764,605 677.764,597 661.764,589 "/>
    <polygon style="fill: none; fill-opacity:0; stroke-width: 2; stroke: #000000" points="661.764,605 677.764,597 661.764,589 "/>
  </g>
</svg>
